<svg width="158" height="40" viewBox="0 0 158 40" fill="none" xmlns="http://www.w3.org/2000/svg">
<rect width="40" height="40" rx="12" fill="#00D091"/>
<path d="M23.3333 26.6665V13.3332C23.3333 12.8911 23.1577 12.4672 22.8452 12.1547C22.5326 11.8421 22.1087 11.6665 21.6667 11.6665H18.3333C17.8913 11.6665 17.4674 11.8421 17.1548 12.1547C16.8423 12.4672 16.6667 12.8911 16.6667 13.3332V26.6665" stroke="#040404" stroke-width="1.66667" stroke-linecap="round" stroke-linejoin="round"/>
<path d="M26.6667 15H13.3333C12.4129 15 11.6667 15.7462 11.6667 16.6667V25C11.6667 25.9205 12.4129 26.6667 13.3333 26.6667H26.6667C27.5871 26.6667 28.3333 25.9205 28.3333 25V16.6667C28.3333 15.7462 27.5871 15 26.6667 15Z" stroke="#040404" stroke-width="1.66667" stroke-linecap="round" stroke-linejoin="round"/>
<path d="M50.0846 29V11.96H53.7326V20.048L52.1246 18.896H61.8206L60.1886 20.048V11.96H63.8366V29H60.1886V20.816L61.8206 21.968H52.1246L53.7326 20.816V29H50.0846ZM66.8613 29V16.136H70.4613V29H66.8613ZM66.7893 14.552V11.672H70.5093V14.552H66.7893ZM73.7754 29V16.136H77.1834L77.3034 19.88L77.0394 19.808C77.2474 18.512 77.6154 17.576 78.1434 17C78.6714 16.424 79.3994 16.136 80.3274 16.136H81.5034V19.112H80.3274C79.6554 19.112 79.1034 19.2 78.6714 19.376C78.2394 19.552 77.9114 19.832 77.6874 20.216C77.4794 20.6 77.3754 21.12 77.3754 21.776V29H73.7754ZM88.7938 29.288C87.4818 29.288 86.3378 29.016 85.3618 28.472C84.4018 27.912 83.6498 27.128 83.1058 26.12C82.5778 25.112 82.3138 23.928 82.3138 22.568C82.3138 21.208 82.5778 20.032 83.1058 19.04C83.6498 18.032 84.4018 17.248 85.3618 16.688C86.3218 16.128 87.4578 15.848 88.7698 15.848C90.0498 15.848 91.1618 16.128 92.1058 16.688C93.0498 17.248 93.7778 18.048 94.2898 19.088C94.8178 20.128 95.0818 21.368 95.0818 22.808V23.528H86.0338C86.0818 24.552 86.3538 25.312 86.8498 25.808C87.3618 26.304 88.0338 26.552 88.8658 26.552C89.4738 26.552 89.9778 26.424 90.3778 26.168C90.7938 25.912 91.0898 25.52 91.2658 24.992L94.8898 25.208C94.5538 26.488 93.8418 27.488 92.7538 28.208C91.6658 28.928 90.3458 29.288 88.7938 29.288ZM86.0338 21.32H91.3858C91.3378 20.376 91.0738 19.672 90.5938 19.208C90.1298 18.744 89.5218 18.512 88.7698 18.512C88.0178 18.512 87.3938 18.76 86.8978 19.256C86.4178 19.736 86.1298 20.424 86.0338 21.32ZM104.477 29.384C103.005 29.384 101.741 29.136 100.685 28.64C99.629 28.144 98.805 27.448 98.213 26.552C97.621 25.656 97.285 24.6 97.205 23.384L100.877 23.216C100.973 23.888 101.165 24.464 101.453 24.944C101.757 25.408 102.157 25.76 102.653 26C103.165 26.24 103.789 26.36 104.525 26.36C105.133 26.36 105.645 26.288 106.061 26.144C106.493 26 106.821 25.784 107.045 25.496C107.269 25.192 107.381 24.824 107.381 24.392C107.381 23.992 107.285 23.648 107.093 23.36C106.901 23.056 106.533 22.784 105.989 22.544C105.445 22.288 104.645 22.04 103.589 21.8C102.133 21.464 100.957 21.088 100.061 20.672C99.181 20.256 98.541 19.736 98.141 19.112C97.741 18.472 97.541 17.672 97.541 16.712C97.541 15.688 97.789 14.792 98.285 14.024C98.797 13.256 99.533 12.656 100.493 12.224C101.453 11.792 102.597 11.576 103.925 11.576C105.333 11.576 106.525 11.824 107.501 12.32C108.477 12.816 109.237 13.496 109.781 14.36C110.341 15.224 110.677 16.216 110.789 17.336L107.141 17.528C107.093 16.936 106.933 16.424 106.661 15.992C106.389 15.544 106.021 15.2 105.557 14.96C105.093 14.72 104.533 14.6 103.877 14.6C103.045 14.6 102.389 14.784 101.909 15.152C101.445 15.52 101.213 16 101.213 16.592C101.213 17.008 101.317 17.36 101.525 17.648C101.749 17.92 102.109 18.16 102.605 18.368C103.117 18.576 103.837 18.776 104.765 18.968C106.349 19.288 107.597 19.696 108.509 20.192C109.437 20.672 110.093 21.248 110.477 21.92C110.861 22.592 111.053 23.36 111.053 24.224C111.053 25.28 110.781 26.2 110.237 26.984C109.709 27.752 108.949 28.344 107.957 28.76C106.981 29.176 105.821 29.384 104.477 29.384ZM117.763 29.288C116.435 29.288 115.347 28.984 114.499 28.376C113.667 27.752 113.251 26.888 113.251 25.784C113.251 24.648 113.603 23.776 114.307 23.168C115.027 22.544 116.083 22.088 117.475 21.8L121.627 20.984C121.627 20.152 121.435 19.528 121.051 19.112C120.683 18.68 120.147 18.464 119.443 18.464C118.755 18.464 118.219 18.624 117.835 18.944C117.451 19.248 117.203 19.704 117.091 20.312L113.467 20.144C113.707 18.736 114.339 17.672 115.363 16.952C116.403 16.216 117.763 15.848 119.443 15.848C121.363 15.848 122.803 16.304 123.763 17.216C124.739 18.128 125.227 19.464 125.227 21.224V25.616C125.227 25.984 125.283 26.232 125.395 26.36C125.523 26.472 125.707 26.528 125.947 26.528H126.307V29C126.195 29.032 126.011 29.064 125.755 29.096C125.515 29.128 125.275 29.144 125.035 29.144C124.523 29.144 124.043 29.056 123.595 28.88C123.163 28.704 122.811 28.408 122.539 27.992C122.267 27.56 122.131 26.952 122.131 26.168L122.443 26.408C122.283 26.984 121.995 27.488 121.579 27.92C121.179 28.352 120.651 28.688 119.995 28.928C119.355 29.168 118.611 29.288 117.763 29.288ZM118.627 26.816C119.219 26.816 119.739 26.704 120.187 26.48C120.635 26.24 120.987 25.896 121.243 25.448C121.499 25 121.627 24.472 121.627 23.864V23.24L118.699 23.864C118.123 23.976 117.683 24.168 117.379 24.44C117.091 24.696 116.947 25.032 116.947 25.448C116.947 25.88 117.091 26.216 117.379 26.456C117.667 26.696 118.083 26.816 118.627 26.816ZM132.822 29C131.494 29 130.518 28.696 129.894 28.088C129.27 27.464 128.958 26.48 128.958 25.136V13.112H132.558V24.704C132.558 25.328 132.686 25.752 132.942 25.976C133.214 26.2 133.614 26.312 134.142 26.312H135.942V29H132.822ZM126.894 18.824V16.136H135.942V18.824H126.894ZM138.064 29V11.96H141.664V19.136H141.184C141.312 18.384 141.56 17.768 141.928 17.288C142.312 16.808 142.784 16.448 143.344 16.208C143.92 15.968 144.544 15.848 145.216 15.848C146.176 15.848 146.976 16.056 147.616 16.472C148.256 16.888 148.736 17.464 149.056 18.2C149.392 18.936 149.56 19.776 149.56 20.72V29H145.96V21.584C145.96 20.624 145.808 19.904 145.504 19.424C145.216 18.944 144.72 18.704 144.016 18.704C143.28 18.704 142.704 18.952 142.288 19.448C141.872 19.944 141.664 20.688 141.664 21.68V29H138.064ZM152.525 29V16.136H156.125V29H152.525ZM152.453 14.552V11.672H156.173V14.552H152.453Z" fill="#F8F8F8"/>
</svg>
